# xmcd
#
# Track frame offsets: 
#        180
#        15657
#        32123
#        47674
#        65625
#        83151
#        101712
#        120817
#        139509
#        157366
#
# Disc length: 2397 seconds
#
# Revision: 0
# Processed by: cddbd v1.5.2PL0 Copyright (c) Steve Scherf et al.
# Submitted via: ExactAudioCopy v1.0b4
#
DISCID=7f095b0a
DTITLE=Wes Mackey - Bluesman
DYEAR=1995
DGENRE=Blues
TTITLE0=Wham Jam
TTITLE1=Miss You
TTITLE2=Supernatural Thing
TTITLE3=In The Rain
TTITLE4=Second Chance
TTITLE5=Bluesman
TTITLE6=L-O-V-E
TTITLE7=Solitary Midnite
TTITLE8=Grand Slam
TTITLE9=The Love I Lost
EXTD=
EXTT0=
EXTT1=
EXTT2=
EXTT3=
EXTT4=
EXTT5=
EXTT6=
EXTT7=
EXTT8=
EXTT9=
PLAYORDER=
